<?xml version="1.0" standalone="no"?>
<!DOCTYPE svg PUBLIC "-//W3C//DTD SVG 20010904//EN"
 "http://www.w3.org/TR/2001/REC-SVG-20010904/DTD/svg10.dtd">
<svg version="1.0" xmlns="http://www.w3.org/2000/svg"
 width="300.000000pt" height="288.000000pt" viewBox="0 0 300.000000 288.000000"
 preserveAspectRatio="xMidYMid meet">
<metadata>
Created by potrace 1.10, written by Peter Selinger 2001-2011
</metadata>
<g transform="translate(0.000000,288.000000) scale(0.100000,-0.100000)"
fill="#000000" stroke="none">
<path d="M1515 2843 c-30 -16 -118 -53 -184 -78 l-35 -13 32 -16 c23 -12 32
-24 32 -41 0 -13 -3 -26 -7 -28 -5 -3 -33 8 -65 23 l-56 27 -54 -29 c-29 -17
-69 -36 -88 -42 l-35 -13 -5 -112 -5 -111 -38 26 -38 25 -104 -50 c-58 -28
-116 -51 -129 -51 -13 0 -51 15 -85 34 -54 31 -63 33 -91 23 -40 -15 -43 -62
-5 -79 22 -10 25 -17 25 -64 l0 -54 81 -41 c45 -22 87 -38 95 -35 8 3 14 19
14 36 l0 31 30 -16 c47 -24 50 -20 50 55 0 59 3 71 20 80 19 10 20 8 20 -80
l0 -91 -47 -19 c-27 -11 -61 -27 -77 -35 -27 -15 -32 -14 -127 31 l-98 47 -3
61 c-3 51 -6 61 -22 65 -11 2 -37 14 -58 27 l-38 24 -96 -47 -95 -47 35 -12
c27 -10 42 -10 65 -1 40 15 48 4 22 -30 -21 -26 -21 -28 -4 -34 10 -4 22 -4
26 -2 4 3 13 0 20 -5 19 -15 467 -254 545 -291 18 -8 31 -22 30 -29 -2 -8 -31
-28 -65 -46 l-61 -32 76 -36 c42 -20 78 -35 80 -34 1 2 5 14 7 27 3 13 14 32
25 43 l20 20 0 -59 0 -60 43 -21 c23 -12 76 -39 117 -59 41 -21 82 -42 90 -46
99 -51 252 -119 279 -124 l34 -7 -24 -19 c-32 -25 -52 -24 -99 6 -22 14 -42
25 -45 25 -4 0 -74 35 -158 77 -84 42 -197 99 -252 126 -233 113 -265 130
-265 138 0 5 30 24 67 43 l67 33 -59 31 c-33 16 -94 49 -135 72 -41 22 -91 48
-110 57 -19 8 -69 36 -110 61 -53 33 -86 46 -112 46 -21 0 -38 5 -39 11 0 5
-4 1 -8 -10 -5 -11 -20 -26 -34 -34 -22 -11 -28 -11 -47 2 l-22 15 24 13 c12
6 25 15 28 18 3 4 15 11 28 16 21 9 14 14 -70 50 -51 22 -95 41 -98 43 -3 1
-4 -42 -3 -95 l1 -98 69 -35 68 -35 3 -100 c3 -99 3 -101 30 -113 15 -7 38
-19 52 -27 l25 -14 5 166 c4 131 8 163 17 152 7 -8 13 -41 15 -74 l3 -59 78
-38 c73 -35 77 -39 77 -70 1 -32 5 -35 103 -84 276 -138 277 -138 277 -161 0
-27 -2 -28 -40 -8 l-30 16 0 -135 0 -134 60 -30 60 -31 0 95 0 94 50 -26 c57
-30 69 -60 20 -50 l-30 6 0 -69 0 -69 65 -36 c87 -48 95 -47 95 8 0 40 -3 45
-30 55 -16 5 -30 15 -30 20 0 14 32 29 48 24 9 -3 12 13 12 61 l0 65 -75 38
c-67 33 -75 40 -75 65 l0 28 93 -48 92 -48 -1 -42 c0 -23 2 -42 6 -42 4 0 40
14 80 30 70 29 115 32 107 7 -2 -7 -14 -16 -27 -22 -12 -5 -55 -24 -94 -40
-59 -25 -71 -35 -73 -55 -3 -23 9 -31 139 -93 l141 -68 120 56 c101 47 122 54
136 43 30 -24 150 -83 156 -76 3 3 7 55 8 114 l2 109 -112 54 c-100 48 -115
53 -138 43 -33 -15 -35 -15 -35 2 0 8 -6 16 -12 18 -8 3 -4 9 10 17 18 10 22
9 22 -4 0 -19 10 -19 24 0 19 26 46 20 157 -34 59 -28 111 -51 116 -51 5 0 31
11 59 24 107 51 200 94 217 99 12 5 17 17 17 47 0 38 -2 40 -29 40 -16 0 -31
-4 -33 -9 -4 -13 -161 -90 -170 -85 -20 13 -1 32 64 64 39 19 77 34 85 33 8 0
12 1 9 4 -5 6 50 35 149 78 33 15 78 35 100 45 22 10 66 30 99 44 51 23 57 29
53 49 -8 30 5 49 27 41 16 -6 18 -18 14 -85 -2 -44 -1 -79 1 -79 2 0 28 12 58
27 l53 27 0 127 0 127 -70 33 c-38 19 -70 37 -70 40 0 4 28 19 63 35 57 26 60
28 33 32 -16 2 -39 10 -51 18 -21 14 -27 12 -76 -17 -30 -18 -61 -32 -69 -32
-44 0 -54 -49 -13 -70 24 -13 30 -12 60 4 35 20 60 26 33 9 -8 -5 -10 -10 -4
-10 6 0 9 -10 7 -24 -4 -17 1 -27 16 -35 18 -10 31 -51 16 -51 -3 0 -48 21
-100 46 l-95 46 0 49 0 49 65 29 c36 16 65 34 65 39 0 5 -15 15 -32 22 -35 13
-83 36 -318 147 -406 193 -430 206 -430 230 0 13 3 23 7 23 4 0 81 -37 172
-81 91 -45 195 -95 230 -111 l64 -30 36 20 c19 11 37 25 39 30 1 5 -39 28 -90
52 -128 59 -465 222 -568 274 -110 56 -119 58 -155 39z m120 -120 c78 -39 95
-52 95 -70 0 -13 -2 -23 -5 -23 -3 0 -46 20 -96 45 -68 33 -98 43 -120 38 -17
-3 -35 0 -45 8 -14 11 -10 15 28 30 24 10 44 18 45 18 2 1 46 -20 98 -46z
m-200 17 c-4 -14 2 -28 20 -45 14 -15 23 -30 20 -35 -6 -10 -151 -80 -165 -80
-6 0 -10 14 -10 30 0 27 3 30 24 24 38 -9 80 36 71 76 -8 36 0 50 26 50 16 0
19 -5 14 -20z m333 -53 c2 -10 -3 -17 -12 -17 -18 0 -29 16 -21 31 9 14 29 6
33 -14z m-150 -86 c124 -64 642 -316 700 -341 28 -12 52 -26 52 -30 0 -5 -13
-11 -28 -15 -23 -5 -78 18 -288 121 -142 69 -317 155 -389 189 l-129 64 -56
-25 c-30 -14 -88 -42 -128 -62 -73 -36 -73 -36 -93 -16 -20 20 -20 20 38 44
32 13 99 43 148 67 50 23 92 43 93 43 2 0 38 -18 80 -39z m-354 16 c16 -12 12
-16 -46 -40 -69 -29 -89 -34 -70 -15 7 7 12 19 12 28 0 16 38 37 71 39 8 1 23
-5 33 -12z m-144 -40 c0 -37 32 -59 73 -52 32 6 34 5 30 -17 -3 -17 3 -32 21
-49 14 -13 26 -27 26 -31 0 -9 -111 -61 -116 -55 -2 2 5 12 16 22 43 39 14
105 -47 105 l-33 0 0 50 c0 38 4 50 15 50 9 0 15 -9 15 -23z m433 -77 c7 -6
111 -59 232 -119 197 -97 218 -109 198 -119 -16 -9 -29 -9 -56 3 -39 16 -66
11 -135 -24 -24 -12 -54 -26 -67 -31 -23 -9 -25 -7 -25 19 0 27 4 30 72 51
l72 22 -154 77 -155 77 -85 -42 c-47 -23 -119 -57 -160 -75 -41 -18 -86 -41
-99 -51 -13 -10 -32 -18 -42 -18 -10 0 -21 -4 -24 -10 -10 -17 -42 -11 -100
17 -47 23 -55 31 -55 55 l0 28 61 -34 61 -34 177 84 c97 47 196 95 221 108 25
13 46 24 48 25 2 0 8 -4 15 -9z m-395 -56 c2 -14 -7 -24 -32 -37 -33 -15 -66
-14 -66 2 0 12 24 38 45 50 28 15 49 9 53 -15z m-175 -40 c3 -3 -8 -21 -26
-39 -26 -27 -34 -31 -49 -21 -26 16 -22 33 10 50 29 16 55 20 65 10z m-329
-54 c67 -34 88 -36 141 -14 36 15 37 14 30 -3 -5 -10 -10 -35 -13 -55 -2 -22
-10 -38 -17 -38 -7 0 -24 -9 -38 -20 -33 -26 -55 -25 -100 5 -30 21 -37 32
-37 58 -1 18 -7 43 -15 57 -13 23 -19 40 -12 40 1 0 29 -14 61 -30z m1061 -31
c7 -7 3 -16 -11 -27 -28 -22 -45 -57 -38 -76 8 -22 0 -20 -59 10 -34 17 -63
24 -84 22 -39 -5 -33 3 26 34 56 30 70 51 53 78 -11 18 -8 18 45 -6 32 -14 63
-30 68 -35z m-128 14 c-3 -2 -13 -5 -23 -8 -11 -2 -113 -47 -227 -99 -115 -53
-219 -99 -232 -102 -13 -3 -29 -12 -35 -19 -8 -10 15 -26 107 -72 65 -32 126
-57 135 -56 10 2 64 26 120 53 l102 51 183 -93 c153 -78 185 -91 201 -82 10 7
42 24 70 39 55 28 58 34 42 66 -14 25 -5 24 61 -10 l56 -28 -130 -63 c-96 -46
-135 -60 -147 -53 -28 18 -54 31 -197 102 l-142 71 -112 -56 -113 -56 -141 72
c-77 40 -144 76 -149 81 -6 5 -18 9 -28 9 -27 0 -22 29 6 40 14 5 55 23 93 41
37 17 106 49 153 70 47 22 99 46 115 54 72 34 152 69 170 75 18 6 71 -17 62
-27z m-1122 -43 c28 -18 34 -27 37 -68 3 -26 3 -49 2 -51 -2 -1 -23 7 -48 20
-56 27 -96 92 -67 109 24 14 40 12 76 -10z m1588 5 c20 -8 38 -18 41 -23 3 -5
-25 -22 -62 -38 -76 -34 -106 -71 -81 -100 7 -9 31 -28 52 -41 l39 -25 -20
-21 c-11 -12 -25 -32 -31 -44 -15 -29 -41 -30 -41 -2 0 11 -9 32 -20 46 -14
18 -20 41 -20 73 0 32 -6 55 -20 73 -11 14 -20 28 -20 32 0 3 27 3 59 -1 56
-6 60 -5 76 20 10 14 15 35 12 46 -6 24 -8 24 36 5z m-1020 -64 c26 -11 47
-23 47 -26 0 -3 -23 -16 -50 -29 -90 -42 -107 -69 -70 -116 19 -25 19 -25 -5
-50 -13 -14 -25 -35 -27 -48 -3 -21 -5 -22 -23 -8 -19 13 -19 15 -2 33 32 37
10 103 -34 103 -14 0 -10 8 18 34 35 32 37 38 41 106 l4 71 27 -25 c14 -13 47
-34 74 -45z m1417 3 c10 -11 6 -19 -20 -41 -31 -26 -32 -28 -28 -95 2 -37 1
-68 -2 -68 -22 0 -50 35 -50 61 0 17 -5 40 -11 51 -10 18 -7 24 21 46 26 20
31 30 26 53 -5 27 -4 27 24 18 16 -6 34 -17 40 -25z m-184 -49 c2 -6 -7 -23
-20 -38 l-23 -28 -37 18 c-30 14 -36 21 -31 38 4 11 6 30 6 42 l-1 22 52 -22
c28 -13 53 -27 54 -32z m-864 10 c-34 -19 -70 -35 -80 -35 -20 1 106 69 128
69 8 1 -13 -15 -48 -34z m728 20 c11 -13 5 -18 -34 -35 -25 -12 -46 -23 -46
-25 0 -2 16 -9 35 -15 19 -6 67 -29 106 -51 40 -21 73 -39 75 -39 2 0 4 20 4
45 0 34 5 47 20 55 19 10 20 8 20 -53 l0 -64 83 -42 82 -42 -3 -48 -4 -48 -86
-38 c-94 -42 -354 -165 -467 -222 l-70 -35 -57 32 c-46 25 -58 37 -58 56 0 24
0 24 33 9 17 -9 43 -22 57 -29 23 -13 33 -10 120 31 122 58 213 100 325 151
165 76 164 75 165 100 0 12 -5 22 -11 22 -6 0 -79 35 -162 77 -84 43 -182 93
-219 111 -64 31 -84 51 -55 53 6 0 37 13 67 29 67 34 65 34 80 15z m-439 -76
c73 -38 134 -69 136 -69 1 0 3 25 3 55 0 30 2 55 4 55 2 0 11 3 20 6 14 5 16
-5 16 -70 0 -72 1 -77 25 -86 15 -6 25 -17 25 -30 0 -11 -2 -20 -5 -20 -3 0
-88 41 -189 90 -102 50 -187 90 -190 90 -3 0 -57 -24 -119 -53 -111 -53 -113
-53 -145 -38 -17 9 -32 19 -32 22 0 11 52 30 69 24 9 -3 63 19 121 49 57 30
109 52 116 49 6 -2 72 -36 145 -74z m109 48 c0 -7 -6 -21 -12 -30 -11 -14 -16
-14 -38 -2 l-24 13 34 15 c19 9 36 16 38 16 1 1 2 -5 2 -12z m-1580 -17 c12
-8 13 -13 3 -30 -17 -26 -16 -40 4 -62 15 -17 15 -18 -4 -18 -34 0 -59 51 -46
98 6 24 19 27 43 12z m1001 -62 c-4 -13 -6 -28 -4 -35 3 -9 -3 -9 -26 0 -17 6
-31 15 -31 20 0 6 51 34 67 37 1 0 -1 -10 -6 -22z m-396 -48 c-10 -11 -15 -28
-12 -39 4 -17 2 -18 -24 -9 -32 11 -59 39 -44 45 6 2 28 12 50 22 44 19 57 11
30 -19z m-445 22 c0 -4 -6 -14 -12 -20 -8 -8 -15 -55 -18 -128 -6 -133 -23
-152 -30 -35 -4 61 -10 86 -27 110 l-23 30 48 25 c52 27 62 30 62 18z m510
-52 l0 -31 -32 17 -32 16 25 14 c35 19 39 17 39 -16z m-302 -53 c10 -8 7 -16
-15 -39 -21 -22 -33 -28 -53 -23 -44 11 -60 34 -60 87 l0 49 58 -32 c31 -18
63 -37 70 -42z m2120 -57 c2 -61 -1 -97 -9 -106 -16 -20 -29 -1 -29 42 0 17
-9 43 -20 56 -17 22 -18 27 -5 44 8 10 15 34 15 53 0 32 1 33 23 19 20 -14 22
-25 25 -108z m-1564 -5 l158 -78 115 53 c96 45 119 52 141 44 36 -12 34 -27
-3 -35 -16 -3 -82 -31 -146 -62 -64 -32 -120 -57 -125 -57 -10 -1 -54 -35 -54
-43 0 -2 18 -12 39 -22 36 -16 41 -16 68 -1 15 8 54 27 86 40 34 15 57 31 57
40 0 28 38 56 74 56 33 0 67 -27 78 -61 2 -6 35 4 76 24 83 41 121 51 142 38
18 -12 24 -9 -95 -62 -86 -39 -100 -49 -100 -70 0 -20 -7 -26 -50 -37 -60 -15
-108 -8 -134 19 -18 20 -19 20 -85 -12 -37 -17 -69 -36 -72 -40 -3 -5 -22 2
-42 14 -20 13 -56 31 -79 41 -46 20 -48 23 -33 46 8 12 13 13 30 3 24 -16 33
-17 25 -3 -3 6 1 17 10 26 9 9 14 21 13 28 -2 6 -65 43 -141 81 -89 45 -137
76 -137 86 0 17 9 30 19 25 3 -1 77 -38 165 -81z m1057 75 c26 -14 24 -25 -6
-38 -34 -16 -32 -16 -31 18 1 32 7 36 37 20z m353 -31 l44 -20 -23 -37 c-29
-45 -52 -72 -62 -72 -5 0 -8 34 -8 75 0 41 1 75 3 75 1 0 22 -9 46 -21z m-879
-46 c30 -15 55 -31 55 -35 0 -9 -55 -38 -72 -38 -7 1 -23 9 -36 20 -18 14 -21
23 -14 37 5 10 7 24 5 31 -6 17 -1 16 62 -15z m674 -19 c-16 -19 -40 -18 -33
1 4 8 1 22 -6 30 -10 12 -7 12 19 -1 26 -13 30 -19 20 -30z m-1682 5 c29 -13
53 -27 53 -30 0 -17 -96 -34 -117 -21 -22 14 -17 92 5 79 4 -1 31 -14 59 -28z
m1617 10 c6 -5 1 -11 -10 -15 -10 -3 -99 -44 -197 -90 -98 -46 -183 -84 -188
-84 -6 0 -20 5 -31 11 -19 10 -13 14 53 44 41 18 130 60 199 93 119 58 149 65
174 41z m-1509 -31 c32 -14 32 -18 -6 -54 -24 -23 -29 -35 -25 -56 3 -16 3
-28 1 -28 -12 0 -95 45 -95 51 0 4 13 12 29 17 35 12 73 52 67 69 -6 16 -4 16
29 1z m318 -32 c42 -21 77 -41 77 -46 0 -4 -7 -13 -16 -20 -27 -23 -36 -48
-24 -70 6 -12 7 -20 1 -20 -18 0 -41 31 -41 55 0 13 -11 37 -25 52 l-24 28
-41 -23 c-51 -29 -63 -22 -27 14 15 15 27 38 27 51 0 13 3 22 8 20 4 -2 42
-20 85 -41z m730 -92 c-3 -9 7 -28 27 -49 30 -31 31 -33 12 -39 -11 -4 -41 3
-67 14 -55 24 -67 22 -91 -15 -16 -24 -15 -27 9 -64 28 -42 23 -51 -26 -51
-26 0 -67 -38 -67 -62 0 -32 38 -60 70 -53 35 8 193 -64 210 -94 12 -23 14
-118 2 -125 -6 -4 -118 41 -150 60 -1 1 3 13 9 28 11 23 9 29 -12 52 -30 32
-71 29 -149 -10 -46 -23 -61 -26 -109 -20 -48 5 -60 3 -84 -16 -22 -18 -27
-28 -22 -47 3 -14 2 -23 -2 -21 -54 26 -83 44 -83 49 0 4 25 17 55 29 31 12
67 31 80 42 24 19 27 19 69 3 40 -15 46 -15 74 -1 17 9 38 26 46 38 15 20 14
24 -6 45 -12 13 -27 23 -33 23 -16 0 -275 128 -275 135 0 4 29 20 65 36 64 29
66 29 98 12 67 -35 189 -11 218 44 8 15 35 36 64 49 60 27 76 29 68 8z m-775
-161 c16 -7 15 -28 -3 -43 -17 -14 -20 -66 -5 -75 16 -10 12 -25 -7 -25 -36
-1 -56 -28 -61 -80 -4 -40 -8 -50 -21 -48 -13 3 -17 19 -19 86 l-3 83 36 33
c37 35 38 52 6 90 -16 18 -15 18 24 1 22 -9 46 -19 53 -22z m957 -21 c-4 -21
-1 -33 15 -47 27 -25 25 -34 -12 -49 -36 -15 -73 -7 -122 27 l-29 20 74 38
c41 21 75 38 77 39 2 0 1 -13 -3 -28z m-845 -212 c0 -25 -7 -43 -21 -56 -15
-13 -19 -26 -15 -46 6 -30 -2 -36 -22 -16 -18 18 -14 53 9 74 32 29 41 51 29
74 -9 16 -8 18 5 14 10 -4 15 -19 15 -44z m582 -29 c5 -4 -41 -31 -102 -60
l-109 -54 -58 25 c-31 14 -58 29 -60 35 -7 19 45 24 80 7 32 -16 35 -15 118
25 78 37 109 43 131 22z"/>
<path d="M900 2575 c-30 -17 -126 -59 -157 -69 -19 -6 -23 -15 -23 -47 0 -53
18 -58 83 -26 29 15 86 40 127 58 41 17 79 35 83 39 9 8 -59 60 -78 60 -5 0
-21 -7 -35 -15z"/>
<path d="M2482 2388 c-7 -7 -12 -24 -12 -39 0 -23 9 -30 73 -59 39 -18 102
-48 140 -66 l68 -33 52 24 c52 23 52 23 25 34 -15 5 -87 39 -160 74 -157 76
-170 81 -186 65z"/>
<path d="M2802 2164 c-51 -22 -95 -44 -98 -47 -7 -7 50 -37 71 -37 13 0 15
-23 15 -164 l0 -165 -57 -26 c-31 -14 -66 -28 -77 -31 -20 -5 -21 -11 -19
-110 1 -61 7 -111 13 -119 11 -13 63 -35 85 -35 6 0 12 30 15 67 l5 67 68 33
c37 19 70 39 73 46 2 7 3 136 2 288 l-3 275 -93 -42z m58 -264 l0 -240 -59
-30 c-66 -33 -91 -61 -91 -102 0 -15 -4 -29 -9 -33 -17 -10 -30 31 -26 81 2
27 4 57 4 67 1 12 18 25 49 39 26 11 59 32 75 46 l27 26 0 156 c0 129 -3 160
-17 179 -15 23 -15 25 2 37 44 32 45 27 45 -226z"/>
<path d="M137 1621 l3 -386 112 -59 c62 -32 151 -78 198 -103 l85 -44 3 278
c1 153 0 283 -2 289 -2 6 -26 22 -53 35 -26 13 -50 25 -53 26 -3 2 -3 -106 -2
-238 2 -133 0 -239 -5 -237 -4 2 -46 23 -93 46 l-85 42 -5 340 -5 340 -50 29
-50 29 2 -387z m65 -39 c2 -218 0 -331 -7 -329 -6 2 -11 128 -13 342 -1 220 1
336 7 330 6 -6 11 -144 13 -343z m296 -245 c3 -259 4 -253 -55 -217 l-33 19
25 25 c25 25 25 26 25 214 0 104 3 192 7 196 23 23 28 -13 31 -237z"/>
<path d="M420 1790 l0 -76 155 -79 155 -80 0 -86 0 -86 60 -31 60 -31 0 135 0
134 -82 41 c-149 75 -182 91 -205 100 -18 7 -23 16 -23 43 0 33 -4 37 -60 64
l-60 28 0 -76z m86 -43 c15 -42 8 -46 -24 -17 -22 21 -28 41 -15 54 13 12 26
0 39 -37z m287 -175 c13 -12 17 -31 17 -94 0 -70 -2 -79 -17 -76 -15 3 -19 17
-23 78 -3 41 -11 85 -18 97 -11 20 -10 22 5 16 10 -3 26 -13 36 -21z"/>
<path d="M2522 1753 l-53 -25 2 -275 c1 -277 0 -292 -33 -293 -4 0 -9 123 -10
274 l-3 274 -58 -27 -58 -26 1 -278 c0 -240 -1 -278 -15 -283 -8 -3 -42 8 -75
25 -32 17 -62 31 -65 31 -3 0 -5 -56 -5 -124 l0 -124 -81 -34 -80 -33 -2 -103
c-1 -56 -1 -102 1 -102 2 0 22 9 45 19 111 50 167 70 181 65 29 -11 17 -33
-24 -45 l-40 -12 0 -198 1 -198 42 20 c23 11 50 23 60 26 15 5 17 20 17 129 0
68 -2 124 -5 124 -3 0 -24 -9 -46 -21 -23 -11 -44 -18 -47 -15 -13 13 23 55
62 72 22 9 75 32 116 50 l75 33 3 56 3 56 57 25 c31 14 104 46 162 71 58 25
116 51 130 59 14 7 46 22 73 33 46 20 47 21 47 65 l0 45 -130 -59 c-172 -78
-170 -77 -170 -46 0 20 9 29 46 46 26 11 50 20 55 20 4 0 51 21 103 46 l96 46
0 222 0 223 -54 -26 -55 -26 -3 -179 -3 -179 -145 -65 c-80 -36 -176 -80 -215
-97 -38 -18 -80 -35 -92 -39 -17 -6 -22 -16 -25 -56 -1 -28 -2 -50 0 -50 1 0
30 14 63 31 102 51 109 53 109 24 0 -20 -9 -29 -37 -42 -21 -9 -79 -35 -130
-59 -91 -42 -93 -43 -115 -24 l-23 18 48 23 47 23 0 71 0 70 33 12 c92 33 129
48 207 86 l85 42 3 318 c2 253 0 317 -10 316 -7 0 -37 -12 -66 -26z m33 -308
c0 -261 -4 -295 -38 -295 -9 0 -11 64 -9 262 3 254 9 304 35 295 9 -3 12 -72
12 -262z m-165 -32 c0 -210 2 -231 20 -261 11 -18 20 -35 20 -38 0 -7 -91 -47
-96 -42 -2 3 1 20 6 39 6 18 10 138 10 266 0 127 3 238 6 247 3 9 12 16 20 16
12 0 14 -40 14 -227z m468 -74 c-3 -170 -3 -172 -28 -188 -23 -15 -24 -15 -15
4 6 11 11 90 13 175 3 163 5 180 22 180 7 0 10 -56 8 -171z m-589 -285 c2 -2
-6 -15 -18 -30 -15 -19 -21 -41 -21 -80 0 -47 -3 -55 -29 -74 -33 -23 -48 -13
-26 16 10 13 14 46 15 101 0 56 4 83 13 86 10 3 49 -8 66 -19z m295 -53 c-5
-23 -1 -35 20 -56 15 -15 26 -29 24 -30 -4 -4 -98 -45 -103 -45 -2 0 -1 15 2
34 4 28 1 38 -22 58 l-27 23 49 22 c62 29 64 29 57 -6z m-471 -195 c-3 -16 3
-29 21 -43 29 -23 24 -30 -31 -52 -47 -19 -63 -9 -63 39 0 44 26 80 59 80 14
0 17 -6 14 -24z m315 2 c-6 -13 -14 -41 -17 -63 -6 -37 -10 -42 -61 -67 -72
-35 -93 -36 -79 -4 9 18 8 29 -5 48 l-16 24 93 42 c50 23 93 42 95 42 1 0 -3
-10 -10 -22z m-238 -8 c0 -21 -24 -27 -50 -10 -12 7 -10 11 10 19 36 14 40 13
40 -9z m60 -379 c0 -46 -5 -72 -14 -80 -19 -16 -26 6 -26 78 0 60 4 71 27 71
9 0 13 -18 13 -69z"/>
<path d="M282 1525 l3 -215 53 -30 52 -30 0 218 0 218 -55 27 -55 27 2 -215z
m63 113 c3 -13 4 -85 3 -161 -4 -197 -22 -183 -26 21 -2 104 1 162 8 162 5 0
12 -10 15 -22z"/>
<path d="M580 1270 c0 -171 -3 -310 -6 -310 -4 0 -40 18 -80 40 l-74 40 0 -53
0 -53 80 -38 79 -37 3 -152 3 -152 72 -39 c69 -37 92 -63 78 -86 -5 -8 -11 -8
-19 -1 -7 6 -84 46 -171 89 l-158 78 2 80 1 79 -55 27 -55 27 0 -80 c0 -44 -3
-79 -7 -77 -79 38 -127 57 -134 52 -5 -3 -9 -23 -9 -45 l0 -39 228 -111 c125
-62 284 -140 354 -175 70 -35 129 -64 133 -64 3 0 4 55 3 123 l-3 122 -77 37
c-67 32 -78 41 -78 63 0 14 2 25 4 25 7 0 265 -128 306 -151 19 -11 47 -25 63
-30 35 -14 39 -56 5 -52 -12 2 -18 -4 -18 -16 0 -13 22 -28 78 -54 l77 -35 3
186 c1 103 0 192 -2 198 -3 7 -26 22 -53 34 -26 11 -55 28 -65 37 -10 9 -18
13 -18 9 0 -8 -114 49 -152 76 l-28 19 0 -88 0 -88 38 -20 c24 -13 38 -28 40
-43 5 -31 2 -30 -151 43 l-127 60 0 268 c0 147 3 267 8 267 4 -1 48 -22 97
-48 l90 -47 3 -62 3 -63 47 -21 c26 -12 54 -25 62 -29 13 -7 14 1 12 52 -4 58
-3 59 17 46 17 -10 21 -23 21 -68 l0 -55 108 -54 109 -53 44 28 c71 46 81 51
156 88 74 37 134 43 178 18 17 -9 15 -12 -20 -27 -30 -12 -44 -14 -57 -6 -14
9 -30 5 -72 -16 -30 -16 -55 -30 -55 -33 -1 -3 23 -17 52 -31 57 -29 63 -28
167 18 25 11 75 33 112 48 37 16 64 33 61 38 -8 13 -91 47 -116 47 -12 1 -33
7 -47 14 l-25 14 37 18 37 17 100 -51 100 -52 75 34 76 35 0 -25 c0 -20 -12
-30 -80 -62 -48 -23 -83 -35 -89 -29 -5 5 -43 -7 -95 -32 -48 -23 -89 -41 -92
-41 -3 0 -43 -16 -90 -36 -60 -26 -88 -33 -97 -26 -6 5 -40 24 -75 42 l-62 31
-40 -18 c-22 -10 -40 -21 -40 -24 0 -3 52 -31 116 -63 105 -51 120 -56 147
-46 38 13 37 13 37 -9 0 -19 -43 -41 -80 -41 -10 0 -85 35 -166 77 -193 99
-306 155 -309 151 -1 -2 -4 -21 -7 -43 l-5 -40 236 -117 c130 -65 243 -118
251 -118 8 0 50 14 92 32 l78 33 0 61 c0 53 3 62 20 67 19 5 20 0 20 -124 0
-71 2 -129 4 -129 3 0 49 20 103 45 l98 44 -1 103 c-1 99 -2 103 -24 108 -35
8 -35 25 0 28 16 1 65 19 107 40 90 44 80 7 82 290 1 165 2 172 21 172 18 0
20 -7 20 -77 l0 -78 53 -27 c29 -16 56 -28 60 -28 4 0 7 79 7 175 0 96 -1 175
-3 175 -2 0 -21 -8 -43 -19 -142 -68 -215 -101 -224 -101 -6 0 -10 -50 -10
-135 l0 -135 -25 -10 c-22 -8 -41 -2 -120 39 l-95 48 -72 -36 c-40 -20 -91
-44 -114 -54 l-41 -19 -136 68 c-76 37 -138 66 -140 63 -2 -2 -2 -22 0 -45 5
-39 7 -41 81 -78 l77 -38 -27 -14 c-26 -13 -41 -7 -357 152 l-330 166 -3 89
-3 89 -52 25 -53 24 0 -309z m70 157 c4 -62 9 -80 29 -101 l24 -26 -24 -26
c-24 -25 -24 -27 -27 -278 l-3 -252 25 -36 24 -36 -20 -19 c-15 -14 -19 -26
-15 -55 6 -42 5 -43 -24 -28 -17 10 -19 22 -19 145 l0 134 -31 36 -31 35 31
26 31 26 0 270 c0 211 3 269 13 266 7 -3 14 -32 17 -81z m1580 -102 c0 -84 -3
-105 -14 -105 -18 0 -29 34 -28 81 1 24 -6 46 -20 64 l-21 27 24 19 c13 10 32
19 42 19 15 0 17 -12 17 -105z m-160 -94 c0 -136 -2 -142 -47 -147 -17 -2 -21
1 -15 9 5 7 12 62 14 124 4 106 14 143 39 143 5 0 9 -58 9 -129z m-1093 -67
c29 -15 53 -29 53 -31 0 -3 -11 -14 -25 -25 -14 -11 -23 -23 -20 -28 7 -11
-31 -23 -45 -15 -5 3 -10 21 -10 40 0 19 -4 45 -10 59 -12 32 -9 32 57 0z
m871 -71 c74 -34 100 -53 71 -53 -12 0 -169 80 -169 86 0 9 18 3 98 -33z
m-688 -18 l51 -26 -20 -32 c-14 -23 -17 -37 -10 -50 13 -23 -2 -22 -51 3 -34
17 -40 25 -40 53 0 17 -7 45 -15 61 -8 15 -15 30 -15 32 0 5 43 -12 100 -41z
m330 -35 c0 -9 -130 -80 -147 -80 -3 0 13 16 36 37 37 31 42 40 37 65 l-6 28
40 -20 c22 -11 40 -25 40 -30z m-180 -40 c0 -11 -11 -27 -25 -36 -23 -15 -27
-15 -50 0 -35 23 -34 49 3 42 15 -3 34 -2 42 4 22 15 30 12 30 -10z m420 -18
c0 -10 -50 -35 -57 -29 -2 2 -1 12 3 21 6 16 54 23 54 8z m157 -100 c-21 -24
-22 -50 -1 -74 18 -19 30 -102 21 -140 -4 -15 -23 -32 -52 -46 -67 -32 -75
-30 -75 24 0 44 0 45 22 30 16 -11 25 -13 35 -4 18 14 17 53 -2 68 -18 15 -18
14 -6 -28 8 -25 7 -32 -2 -29 -7 2 -13 16 -15 31 -3 22 -6 25 -18 15 -11 -9
-14 -8 -14 9 0 12 -13 37 -30 55 l-30 34 73 36 c39 20 81 36 91 36 18 1 18 0
3 -17z m-197 -70 c0 -5 -7 -17 -15 -28 -8 -10 -15 -28 -15 -38 0 -18 -2 -18
-25 4 -14 13 -25 26 -25 30 0 6 58 38 73 39 4 1 7 -3 7 -7z m-666 -69 c41 -21
47 -27 33 -35 -9 -5 -24 -22 -32 -38 l-15 -29 -40 36 c-31 29 -40 44 -40 71 0
30 2 33 23 26 12 -3 44 -18 71 -31z m-680 -29 c3 -9 6 -39 6 -67 0 -42 5 -58
25 -80 34 -36 18 -34 -68 10 -53 27 -67 38 -52 41 33 7 55 33 61 74 7 40 18
49 28 22z m808 -41 c16 -14 18 -33 18 -154 0 -76 -4 -140 -9 -143 -5 -4 -17
-3 -26 0 -12 5 -14 14 -10 33 4 19 -1 35 -16 55 l-21 27 21 23 c17 18 21 35
21 87 0 37 -5 70 -12 77 -19 19 12 15 34 -5z m-71 -3 c16 -9 19 -22 19 -75 0
-69 -1 -71 -31 -55 -16 9 -19 22 -19 75 0 69 1 71 31 55z m-58 -118 l7 -32
-33 16 c-17 9 -34 18 -36 20 -2 2 7 16 20 32 26 32 30 28 42 -36z m-231 -59
c14 -13 18 -31 18 -85 0 -77 -2 -78 -70 -47 -29 14 -40 23 -30 26 45 16 78 81
50 98 -5 3 -10 10 -10 16 0 14 22 11 42 -8z"/>
<path d="M2635 1291 l0 -138 57 26 57 26 1 82 0 83 -57 29 -58 29 0 -137z m70
-1 c0 -34 -5 -55 -12 -57 -10 -4 -13 12 -13 57 0 45 3 61 13 58 7 -3 12 -24
12 -58z"/>
<path d="M137 976 l2 -210 51 -23 50 -22 0 79 0 80 66 -35 c36 -19 70 -35 75
-35 5 0 9 20 9 45 l0 45 -75 37 c-72 36 -75 39 -75 72 0 32 1 33 18 19 25 -22
107 -68 120 -68 8 0 12 18 12 48 0 39 -4 49 -23 58 -12 5 -69 35 -127 65
l-105 56 2 -211z m93 117 c14 -9 26 -17 28 -18 2 -2 -11 -16 -28 -33 -38 -38
-38 -61 0 -97 l29 -28 -29 -27 c-21 -20 -30 -38 -30 -59 0 -32 -19 -44 -21
-13 -5 78 -7 276 -3 283 8 14 27 11 54 -8z"/>
<path d="M732 974 l3 -217 30 -16 c17 -9 43 -22 59 -29 l28 -13 -3 114 -4 114
74 -38 c40 -22 79 -39 85 -39 16 0 12 83 -5 92 -8 4 -44 21 -81 38 l-68 29 0
63 0 63 -52 25 c-28 14 -55 27 -60 28 -5 2 -7 -94 -6 -214z m72 130 c3 -9 6
-29 6 -45 0 -33 16 -68 37 -84 12 -9 9 -15 -11 -34 -23 -22 -26 -32 -26 -98 0
-73 -5 -84 -28 -61 -13 13 -18 319 -5 331 11 11 20 8 27 -9z"/>
<path d="M2843 924 l-53 -25 0 -120 0 -119 -32 -20 c-18 -11 -52 -25 -75 -31
l-43 -11 0 -59 c0 -59 0 -59 23 -45 12 7 70 35 130 62 l107 47 0 174 c0 95 -1
173 -2 172 -2 0 -27 -12 -55 -25z m17 -174 c0 -130 2 -124 -66 -150 l-26 -10
31 35 c30 35 31 38 31 134 0 54 3 101 7 104 18 19 23 -3 23 -113z"/>
<path d="M420 755 l0 -124 60 -30 60 -30 0 130 0 129 -56 25 c-31 14 -58 25
-60 25 -2 0 -4 -56 -4 -125z m74 39 c3 -9 6 -45 6 -80 0 -48 -3 -64 -14 -64
-7 0 -16 10 -20 23 -8 30 -8 122 1 130 11 11 20 8 27 -9z"/>
<path d="M2690 860 l-45 -18 -3 -107 -3 -107 53 29 53 28 3 98 c1 53 -1 97 -5
96 -4 -1 -28 -9 -53 -19z m20 -90 c0 -44 -8 -70 -21 -70 -10 0 -12 103 -3 113
14 13 24 -6 24 -43z"/>
<path d="M2530 786 l-55 -22 -3 -183 -3 -183 62 34 63 33 0 173 c1 94 -1 172
-4 172 -3 -1 -30 -11 -60 -24z m30 -165 c0 -109 -13 -153 -39 -137 -9 6 -12
41 -10 119 2 122 11 156 35 136 10 -9 14 -38 14 -118z"/>
<path d="M1240 627 l0 -42 143 -73 142 -72 60 24 c116 47 115 46 115 98 l0 47
-67 -30 c-38 -17 -76 -35 -85 -40 -14 -7 -48 6 -140 52 -68 33 -127 65 -132
70 -22 21 -36 9 -36 -34z"/>
<path d="M2060 613 c-19 -8 -105 -44 -190 -80 -85 -36 -194 -83 -243 -104 -48
-22 -92 -39 -99 -39 -6 0 -71 30 -145 67 -73 36 -134 65 -136 62 -2 -2 -2 -23
1 -47 l4 -44 117 -54 c64 -30 125 -59 136 -65 15 -7 34 -4 70 10 53 20 343
146 433 187 67 30 69 30 68 -6 -1 -23 -6 -30 -21 -30 -11 0 -33 -7 -50 -16
-16 -9 -79 -36 -139 -60 -60 -25 -114 -48 -120 -52 -6 -5 -57 -28 -114 -51
l-103 -44 -93 42 c-51 22 -113 52 -137 66 -24 13 -47 25 -51 25 -5 0 -8 -22
-8 -50 0 -27 4 -50 9 -50 6 0 62 -25 125 -55 63 -30 125 -57 138 -60 21 -5
191 60 290 111 l28 15 0 -86 0 -85 60 30 60 31 -6 77 -6 77 84 36 83 37 3 111
c1 61 -1 111 -5 110 -4 0 -24 -7 -43 -16z m-140 -262 c-5 -11 -10 -42 -10 -70
0 -59 -7 -81 -26 -81 -9 0 -14 12 -14 34 0 23 -9 45 -26 65 l-26 31 34 14 c77
31 82 32 68 7z"/>
<path d="M2362 606 l-54 -23 -2 -51 c-1 -29 1 -51 4 -50 3 2 31 14 63 27 l57
25 0 48 c0 26 -3 48 -7 47 -5 0 -32 -11 -61 -23z"/>
<path d="M890 389 c0 -76 3 -99 13 -99 8 0 90 -37 183 -83 220 -107 404 -193
429 -201 14 -4 65 13 145 48 l125 53 3 58 c2 31 -1 55 -5 53 -13 -7 -84 -38
-143 -64 -30 -13 -67 -30 -83 -39 -26 -13 -33 -12 -146 39 -65 30 -126 59
-137 65 -10 6 -73 35 -139 65 l-120 54 -3 50 -3 49 -59 26 -60 26 0 -100z m64
25 c9 -3 16 -18 16 -31 0 -14 9 -41 21 -60 l21 -33 -29 12 c-47 20 -53 29 -53
74 0 47 0 47 24 38z m776 -279 c0 -3 -45 -27 -101 -54 l-101 -49 -35 24 c-20
13 -41 24 -48 24 -7 0 -19 7 -26 16 -11 13 -4 12 28 -5 23 -11 55 -21 71 -21
29 0 149 44 167 61 9 9 45 13 45 4z"/>
<path d="M2368 463 c-56 -25 -56 -25 -60 -74 -1 -27 -1 -49 2 -49 2 0 30 10
62 22 l58 23 0 52 c0 29 -1 53 -2 52 -2 0 -28 -12 -60 -26z"/>
<path d="M2055 337 c-22 -11 -47 -23 -55 -27 -16 -8 -29 -125 -13 -119 5 2 34
15 66 28 l57 25 0 58 c0 32 -3 58 -7 57 -5 -1 -26 -10 -48 -22z"/>
</g>
</svg>
